<svg xmlns="http://www.w3.org/2000/svg" viewBox="0 0 24 24" width="24" height="24">
    <title>copy</title>
    <path fill="none" d="M0 0h24v24H0z"/>
    <path d="M2 15.077C2 16.3515 3.03318 17.3847 4.30769 17.3847H6.61538V15.8463H4.30769C3.88286 15.8463 3.53846 15.5018 3.53846 15.077V4.3077C3.53846 3.88287 3.88286 3.53847 4.30769 3.53847H15.0769C15.5018 3.53847 15.8462 3.88287 15.8462 4.3077V6.61534H8.92308C7.64858 6.61534 6.61538 7.64853 6.61538 8.92305V19.6923C6.61538 20.9668 7.64858 22 8.92308 22H19.6923C20.9668 22 22 20.9668 22 19.6923V8.92305C22 7.64853 20.9668 6.61534 19.6923 6.61534H17.3846V4.3077C17.3846 3.03319 16.3514 2 15.0769 2H4.30769C3.03318 2 2 3.03319 2 4.3077V15.077ZM8.15385 8.92305C8.15385 8.49821 8.49825 8.15381 8.92308 8.15381H19.6923C20.1171 8.15381 20.4615 8.49821 20.4615 8.92305V19.6923C20.4615 20.1172 20.1171 20.4615 19.6923 20.4615H8.92308C8.49825 20.4615 8.15385 20.1172 8.15385 19.6923V8.92305Z"  fill="currentColor" fill-rule="evenodd" clip-rule="evenodd"/>
</svg>
