<svg xmlns="http://www.w3.org/2000/svg" viewBox="0 0 24 24" width="24" height="24">
    <title>link</title>
    <path d="M13.73 4.31604C14.8862 3.53058 16.3482 3.51519 17.4343 4.22848C17.6809 4.39044 17.9442 4.64749 18.6483 5.35162C19.3525 6.05573 19.6096 6.31911 19.7715 6.56574C20.4849 7.65185 20.4695 9.11376 19.684 10.27C19.5046 10.5339 19.2272 10.8167 18.4972 11.5467L17.4396 12.6044C17.1059 12.9382 17.1059 13.4794 17.4396 13.8132C17.7734 14.147 18.3146 14.147 18.6483 13.8132L19.706 12.7555L19.7795 12.6821C20.4113 12.0504 20.8156 11.6462 21.0981 11.2306C22.2523 9.53141 22.312 7.31982 21.2005 5.62734C20.9293 5.21457 20.5343 4.81966 19.9335 4.21911L19.8571 4.14282L19.7809 4.06647C19.1803 3.46572 18.7854 3.07064 18.3726 2.79956C16.6802 1.68806 14.4686 1.74766 12.7694 2.90196C12.3538 3.18427 11.9496 3.58865 11.3178 4.22055L11.2445 4.29392L10.1868 5.35162C9.85299 5.68542 9.85299 6.22661 10.1868 6.56041C10.5206 6.8942 11.0618 6.8942 11.3956 6.56041L12.4533 5.5027C13.1832 4.77275 13.4661 4.4953 13.73 4.31604ZM6.56041 11.3956C6.89421 11.0618 6.89421 10.5206 6.56041 10.1868C6.2266 9.853 5.68541 9.853 5.35161 10.1868L4.29391 11.2445L4.22056 11.3179C3.58864 11.9496 3.18428 12.3538 2.90195 12.7694C1.74765 14.4686 1.68807 16.6801 2.79957 18.3727C3.07065 18.7854 3.46571 19.1803 4.0665 19.7808L4.14281 19.8572L4.2191 19.9335C4.81965 20.5342 5.21456 20.9294 5.62734 21.2004C7.31982 22.3119 9.5314 22.2524 11.2306 21.098C11.6462 20.8158 12.0504 20.4113 12.6821 19.7795H12.6821L12.7555 19.7061L13.8132 18.6485C14.147 18.3146 14.147 17.7734 13.8132 17.4397C13.4794 17.1058 12.9382 17.1058 12.6044 17.4397L11.5467 18.4973C10.8167 19.2273 10.5339 19.5047 10.27 19.6839C9.11375 20.4694 7.65186 20.4848 6.56573 19.7716C6.31912 19.6095 6.05574 19.3524 5.35161 18.6485C4.64749 17.9443 4.39045 17.6809 4.22847 17.4342C3.5152 16.3482 3.53059 14.8862 4.31603 13.73C4.49529 13.4661 4.77276 13.1833 5.50271 12.4533L6.56041 11.3956ZM15.6272 9.58158C15.961 9.24779 15.961 8.70658 15.6272 8.37278C15.2934 8.03898 14.7522 8.03898 14.4184 8.37278L8.3744 14.4168C8.0406 14.7506 8.0406 15.2918 8.3744 15.6256C8.70819 15.9594 9.24939 15.9594 9.5832 15.6256L15.6272 9.58158Z"  fill="currentColor" fill-rule="evenodd" clip-rule="evenodd"/>
</svg>
